<mxfile host="app.diagrams.net" modified="2022-09-11T13:10:51.001Z" agent="5.0 (Windows NT 10.0; Win64; x64) AppleWebKit/537.36 (KHTML, like Gecko) Chrome/105.0.0.0 Safari/537.36" etag="v1x4tk_V_Vy3wmGFsG-K" version="20.3.0" type="github">
  <diagram id="N05S_DZFx569JBw25jdm" name="Página-1">
    <mxGraphModel dx="1342" dy="582" grid="1" gridSize="10" guides="1" tooltips="1" connect="1" arrows="1" fold="1" page="0" pageScale="1" pageWidth="827" pageHeight="1169" math="0" shadow="0">
      <root>
        <mxCell id="0" />
        <mxCell id="1" parent="0" />
        <mxCell id="3hT37T44eiKEb_ASeJzj-7" value="Copa" style="whiteSpace=wrap;html=1;align=center;fontSize=16;" parent="1" vertex="1">
          <mxGeometry x="-120" y="110" width="100" height="40" as="geometry" />
        </mxCell>
        <mxCell id="3hT37T44eiKEb_ASeJzj-14" value="Selección" style="whiteSpace=wrap;html=1;align=center;fontSize=16;" parent="1" vertex="1">
          <mxGeometry x="320" y="160" width="100" height="40" as="geometry" />
        </mxCell>
        <mxCell id="3hT37T44eiKEb_ASeJzj-18" value="" style="endArrow=none;dashed=1;html=1;rounded=0;fontSize=12;startSize=14;endSize=14;entryX=0.5;entryY=1;entryDx=0;entryDy=0;startArrow=none;" parent="1" source="3hT37T44eiKEb_ASeJzj-32" target="3hT37T44eiKEb_ASeJzj-14" edge="1">
          <mxGeometry width="50" height="50" relative="1" as="geometry">
            <mxPoint x="370" y="320" as="sourcePoint" />
            <mxPoint x="320" y="170" as="targetPoint" />
          </mxGeometry>
        </mxCell>
        <mxCell id="3hT37T44eiKEb_ASeJzj-23" value="" style="endArrow=none;dashed=1;html=1;rounded=0;fontSize=12;startSize=14;endSize=14;startArrow=none;" parent="1" source="3hT37T44eiKEb_ASeJzj-24" edge="1">
          <mxGeometry width="50" height="50" relative="1" as="geometry">
            <mxPoint x="20" y="640" as="sourcePoint" />
            <mxPoint x="20" y="200" as="targetPoint" />
          </mxGeometry>
        </mxCell>
        <mxCell id="3hT37T44eiKEb_ASeJzj-29" value="loop" style="shape=umlFrame;whiteSpace=wrap;html=1;fontSize=16;" parent="1" vertex="1">
          <mxGeometry x="-70" y="230" width="510" height="90" as="geometry" />
        </mxCell>
        <mxCell id="3hT37T44eiKEb_ASeJzj-24" value="" style="html=1;points=[];perimeter=orthogonalPerimeter;fontSize=16;" parent="1" vertex="1">
          <mxGeometry x="15" y="250" width="10" height="50" as="geometry" />
        </mxCell>
        <mxCell id="3hT37T44eiKEb_ASeJzj-30" value="" style="endArrow=none;dashed=1;html=1;rounded=0;fontSize=12;startSize=14;endSize=14;" parent="1" target="3hT37T44eiKEb_ASeJzj-24" edge="1">
          <mxGeometry width="50" height="50" relative="1" as="geometry">
            <mxPoint x="20" y="640" as="sourcePoint" />
            <mxPoint x="20" y="200" as="targetPoint" />
          </mxGeometry>
        </mxCell>
        <mxCell id="3hT37T44eiKEb_ASeJzj-32" value="" style="html=1;points=[];perimeter=orthogonalPerimeter;fontSize=16;" parent="1" vertex="1">
          <mxGeometry x="365" y="250" width="10" height="50" as="geometry" />
        </mxCell>
        <mxCell id="3hT37T44eiKEb_ASeJzj-33" value="" style="endArrow=none;dashed=1;html=1;rounded=0;fontSize=12;startSize=14;endSize=14;entryX=0.5;entryY=1;entryDx=0;entryDy=0;" parent="1" target="3hT37T44eiKEb_ASeJzj-32" edge="1">
          <mxGeometry width="50" height="50" relative="1" as="geometry">
            <mxPoint x="370" y="520" as="sourcePoint" />
            <mxPoint x="370" y="200" as="targetPoint" />
          </mxGeometry>
        </mxCell>
        <mxCell id="3hT37T44eiKEb_ASeJzj-34" value="" style="html=1;verticalAlign=bottom;endArrow=block;rounded=0;fontSize=12;startSize=14;endSize=14;entryX=-0.114;entryY=0.21;entryDx=0;entryDy=0;entryPerimeter=0;" parent="1" target="3hT37T44eiKEb_ASeJzj-32" edge="1">
          <mxGeometry width="80" relative="1" as="geometry">
            <mxPoint x="25" y="260" as="sourcePoint" />
            <mxPoint x="105" y="260" as="targetPoint" />
          </mxGeometry>
        </mxCell>
        <mxCell id="3hT37T44eiKEb_ASeJzj-37" value="&lt;b&gt;Pedido:&lt;/b&gt; lista jugadores" style="edgeLabel;html=1;align=center;verticalAlign=middle;resizable=0;points=[];fontSize=8;fontFamily=Verdana;" parent="3hT37T44eiKEb_ASeJzj-34" vertex="1" connectable="0">
          <mxGeometry x="-0.0176" y="2" relative="1" as="geometry">
            <mxPoint as="offset" />
          </mxGeometry>
        </mxCell>
        <mxCell id="3hT37T44eiKEb_ASeJzj-35" value="" style="html=1;verticalAlign=bottom;endArrow=open;dashed=1;endSize=8;rounded=0;fontSize=12;exitX=0.024;exitY=0.79;exitDx=0;exitDy=0;exitPerimeter=0;" parent="1" source="3hT37T44eiKEb_ASeJzj-32" edge="1">
          <mxGeometry relative="1" as="geometry">
            <mxPoint x="105" y="290" as="sourcePoint" />
            <mxPoint x="25" y="290" as="targetPoint" />
          </mxGeometry>
        </mxCell>
        <mxCell id="3hT37T44eiKEb_ASeJzj-36" value="&lt;font face=&quot;Verdana&quot; size=&quot;1&quot;&gt;&lt;b style=&quot;line-height: 1.2; font-size: 8px;&quot;&gt;[para cada&amp;nbsp;Selección en la lista equipos]&lt;/b&gt;&lt;/font&gt;" style="text;html=1;strokeColor=none;fillColor=none;align=center;verticalAlign=middle;whiteSpace=wrap;rounded=0;fontSize=16;horizontal=1;" parent="1" vertex="1">
          <mxGeometry x="70" y="140" width="195" height="30" as="geometry" />
        </mxCell>
      </root>
    </mxGraphModel>
  </diagram>
</mxfile>
